<svg width="216" height="216" viewBox="0 0 216 216" fill="none" xmlns="http://www.w3.org/2000/svg">
<g clip-path="url(#clip0_172:492)">
<rect width="216" height="216" fill="#0F1215"/>
<rect width="216" height="216" fill="#1A2531"/>
<ellipse cx="117.472" cy="109.247" rx="181.624" ry="160.782" fill="url(#paint0_linear_172:492)"/>
<path d="M108.286 148.239L86.4641 135.509C85.9045 135.183 85.8239 134.406 86.3044 133.972L114.885 108.13C115.318 107.738 115.908 107.565 116.484 107.662L202.323 121.997C202.984 122.108 203.539 122.556 203.787 123.178L216.844 155.988C217.218 156.93 216.795 158 215.878 158.43L209.532 161.409C208.971 161.672 208.318 161.648 207.778 161.344L189.696 151.152C189.094 150.812 188.721 150.175 188.721 149.483V145.637C188.721 144.152 187.106 143.232 185.829 143.99L156.736 161.254C156.138 161.608 155.395 161.612 154.795 161.262L124.987 143.903V143.196C124.987 141.731 123.408 140.808 122.132 141.527L110.191 148.253C109.598 148.587 108.873 148.581 108.286 148.239Z" stroke="url(#paint1_linear_172:492)" stroke-opacity="0.5" stroke-width="22.9798"/>
<path d="M240.968 100.834C106.832 101.761 40.6893 194.572 23.7522 242.365C23.4665 243.172 22.7191 243.682 21.8635 243.682H-6.23242C-7.33699 243.682 -8.23242 242.786 -8.23242 241.682V-4.56006C-8.23242 -5.66463 -7.33699 -6.56006 -6.23242 -6.56006H240.995C242.099 -6.56006 242.995 -5.66463 242.995 -4.56006V98.8273C242.995 99.9318 242.073 100.827 240.968 100.834Z" fill="url(#paint2_linear_172:492)"/>
<g clip-path="url(#clip1_172:492)">
<rect width="35.3241" height="24.8023" transform="matrix(0.866025 0.5 -2.20305e-08 1 123.428 66.4354)" fill="#697791"/>
<rect width="52.5554" height="25.8746" transform="matrix(-0.866025 0.5 2.20305e-08 1 199.534 56.7357)" fill="#434F69"/>
<path d="M167.178 43.4178C168.352 42.815 170.085 42.7501 171.383 43.2605L198.035 53.7353C198.973 54.1036 199.534 54.7159 199.534 55.3705L199.534 59.1003C199.534 59.6252 199.172 60.1287 198.529 60.4997L156.21 84.9114C154.871 85.6833 152.703 85.683 151.365 84.9107L124.431 69.3604C123.789 68.9894 123.428 68.4863 123.428 67.9617L123.428 66.7771C123.428 66.2123 123.846 65.6745 124.577 65.2991L167.178 43.4178Z" fill="#2D3752"/>
<path d="M167.055 39.0585C168.152 38.5873 169.63 38.5381 170.814 38.9332L198.445 48.1538C199.505 48.5073 200.157 49.16 200.157 49.8664L200.157 57.2252C200.157 57.7499 199.796 58.253 199.154 58.624L156.199 83.424C154.865 84.1941 152.704 84.1969 151.364 83.4303L123.4 67.4291C122.751 67.0576 122.386 66.5518 122.386 66.0241L122.386 59.2307C122.386 58.6052 122.898 58.0166 123.767 57.6434L167.055 39.0585Z" fill="#8B96B1"/>
<path fill-rule="evenodd" clip-rule="evenodd" d="M154.278 83.9822C154.981 83.9225 155.658 83.7364 156.199 83.424L199.154 58.624C199.796 58.253 200.157 57.7499 200.157 57.2253L200.157 49.8665C200.157 49.1601 199.505 48.5073 198.445 48.1538L170.814 38.9332C169.63 38.5381 168.152 38.5873 167.055 39.0585L154.278 44.5443V83.9822Z" fill="#5D6D87"/>
<rect width="37.8301" height="55.2387" rx="2.79753" transform="matrix(0.866025 0.5 -0.866025 0.5 168.863 30.8208)" fill="#BDC3D9"/>
<rect width="10.3388" height="4.13551" rx="0.746137" transform="matrix(0.866025 0.5 -2.20305e-08 1 133.127 78.5735)" fill="#2D3752"/>
<rect width="26.6908" height="18.7406" transform="matrix(0.866025 0.5 -2.20305e-08 1 137.576 35.9104)" fill="#697791"/>
<rect width="39.7108" height="19.5508" transform="matrix(-0.866025 0.5 2.20305e-08 1 195.082 28.5812)" fill="#434F69"/>
<path d="M170.634 18.5182C171.52 18.0628 172.83 18.0138 173.811 18.3994L193.949 26.3141C194.658 26.5925 195.082 27.0551 195.082 27.5497L195.082 30.3679C195.082 30.7646 194.808 31.145 194.322 31.4253L162.346 49.8707C161.335 50.454 159.696 50.4538 158.686 49.8703L138.334 38.1205C137.849 37.8401 137.576 37.46 137.576 37.0636L137.576 36.1685C137.576 35.7418 137.892 35.3354 138.444 35.0517L170.634 18.5182Z" fill="#2D3752"/>
<path d="M170.541 15.2244C171.37 14.8684 172.486 14.8312 173.381 15.1298L194.259 22.0968C195.06 22.3639 195.553 22.8572 195.553 23.3909L195.553 28.9512C195.553 29.3476 195.28 29.7278 194.794 30.0081L162.338 48.747C161.33 49.3288 159.697 49.3309 158.685 48.7517L137.555 36.6612C137.065 36.3805 136.789 35.9983 136.789 35.5996L136.789 30.4665C136.789 29.9939 137.176 29.5492 137.833 29.2671L170.541 15.2244Z" fill="#8B96B1"/>
<path fill-rule="evenodd" clip-rule="evenodd" d="M160.886 49.1687C161.417 49.1236 161.929 48.9829 162.338 48.747L194.794 30.0081C195.28 29.7278 195.553 29.3476 195.553 28.9512V23.3909C195.553 22.8572 195.06 22.3639 194.259 22.0968L173.381 15.1298C172.486 14.8312 171.37 14.8684 170.541 15.2244L160.886 19.3695V49.1687Z" fill="#5D6D87"/>
<rect width="28.5844" height="41.7382" rx="2.11381" transform="matrix(0.866025 0.5 -0.866025 0.5 171.907 9)" fill="#BDC3D9"/>
<rect width="7.81196" height="3.12478" rx="0.563779" transform="matrix(0.866025 0.5 -2.20305e-08 1 144.905 45.0819)" fill="#2D3752"/>
<rect width="33.632" height="23.6142" transform="matrix(0.866025 0.5 -2.20305e-08 1 179.328 89.3476)" fill="#A56643"/>
<rect width="50.0378" height="24.6351" transform="matrix(-0.866025 0.5 2.20305e-08 1 251.788 80.1125)" fill="#8E5B3E"/>
<path d="M222.883 66.4562L251.788 77.8165L251.788 83.1445L208.233 108.269L179.328 91.5808L179.328 88.8276L222.883 66.4562Z" fill="#7B4A29"/>
<path d="M222.587 62.543L253.779 73.5541L253.779 80.552L208.233 106.848L177.04 88.8393L177.04 81.7236L222.587 62.543Z" fill="#A56643"/>
<path d="M208.233 73.554L253.779 73.554L253.779 80.5519L208.233 106.848L208.233 73.554Z" fill="#8E5B3E"/>
<rect width="36.0179" height="52.5925" transform="matrix(0.866025 0.5 -0.866025 0.5 222.587 55.439)" fill="#C29472"/>
<rect width="9.8435" height="3.9374" rx="0.710394" transform="matrix(0.866025 0.5 -2.20305e-08 1 188.563 100.904)" fill="#4A2713"/>
<rect width="30.6707" height="21.5349" transform="matrix(0.866025 0.5 -2.20305e-08 1 182.501 60.0652)" fill="#A56643"/>
<rect width="45.6319" height="22.466" transform="matrix(-0.866025 0.5 2.20305e-08 1 248.581 51.6432)" fill="#8E5B3E"/>
<path d="M222.221 39.1894L248.581 49.5493L248.581 54.4082L208.86 77.3206L182.501 62.1017L182.501 59.5909L222.221 39.1894Z" fill="#7B4A29"/>
<path d="M221.95 35.6207L250.396 45.6622L250.396 52.044L208.86 76.0248L180.414 59.6016L180.414 53.1125L221.95 35.6207Z" fill="#A56643"/>
<path d="M208.86 45.6622L250.396 45.6622L250.396 52.044L208.86 76.0248L208.86 45.6622Z" fill="#8E5B3E"/>
<rect width="32.8465" height="47.9617" transform="matrix(0.866025 0.5 -0.866025 0.5 221.95 29.1422)" fill="#C29472"/>
<rect width="8.97678" height="3.59071" rx="0.647843" transform="matrix(0.866025 0.5 -2.20305e-08 1 190.922 70.6042)" fill="#4A2713"/>
<rect width="28.0974" height="19.7281" transform="matrix(0.866025 0.5 -2.20305e-08 1 85.0593 115.1)" fill="#A56643"/>
<rect width="41.8034" height="20.5811" transform="matrix(-0.866025 0.5 2.20305e-08 1 145.595 107.385)" fill="#8E5B3E"/>
<path d="M121.447 95.9756L145.595 105.466L145.595 109.918L109.208 130.908L85.0594 116.966L85.0593 114.665L121.447 95.9756Z" fill="#7B4A29"/>
<path d="M121.199 92.7064L147.259 101.905L147.259 107.752L109.208 129.721L83.1483 114.675L83.1483 108.731L121.199 92.7064Z" fill="#A56643"/>
<path d="M109.208 101.905L147.259 101.905L147.259 107.752L109.208 129.721L109.208 101.905Z" fill="#8E5B3E"/>
<rect width="30.0907" height="43.9377" transform="matrix(0.866025 0.5 -0.866025 0.5 121.199 86.7715)" fill="#C29472"/>
<rect width="8.22363" height="3.28945" rx="0.593489" transform="matrix(0.866025 0.5 -2.20305e-08 1 92.7747 124.755)" fill="#4A2713"/>
<rect width="26.4886" height="18.5985" transform="matrix(0.866025 0.5 -2.20305e-08 1 86.3926 89.9786)" fill="#A56643"/>
<rect width="39.4098" height="19.4026" transform="matrix(-0.866025 0.5 2.20305e-08 1 143.462 82.705)" fill="#8E5B3E"/>
<path d="M120.697 71.9493L143.462 80.8967L143.462 85.093L109.158 104.881L86.3926 91.7375L86.3926 89.569L120.697 71.9493Z" fill="#7B4A29"/>
<path d="M120.463 68.8673L145.031 77.5396L145.031 83.0511L109.158 103.762L84.5909 89.5782L84.5909 83.974L120.463 68.8673Z" fill="#A56643"/>
<path d="M109.158 77.5395L145.031 77.5395L145.031 83.0511L109.158 103.762L109.158 77.5395Z" fill="#8E5B3E"/>
<rect width="28.3677" height="41.4219" transform="matrix(0.866025 0.5 -0.866025 0.5 120.463 63.2722)" fill="#C29472"/>
<rect width="7.75276" height="3.1011" rx="0.559507" transform="matrix(0.866025 0.5 -2.20305e-08 1 93.6663 99.0806)" fill="#4A2713"/>
<rect width="35.3241" height="24.8023" transform="matrix(0.866025 0.5 -2.20305e-08 1 124.922 119.029)" fill="#697791"/>
<rect width="52.5554" height="25.8746" transform="matrix(-0.866025 0.5 2.20305e-08 1 201.028 109.329)" fill="#434F69"/>
<path d="M168.672 96.0114C169.846 95.4086 171.579 95.3438 172.877 95.8542L199.529 106.329C200.467 106.697 201.028 107.31 201.028 107.964L201.028 111.694C201.028 112.219 200.666 112.722 200.023 113.093L157.703 137.505C156.365 138.277 154.197 138.277 152.859 137.504L125.925 121.954C125.283 121.583 124.922 121.08 124.922 120.555L124.922 119.371C124.922 118.806 125.34 118.268 126.07 117.893L168.672 96.0114Z" fill="#2D3752"/>
<path d="M168.549 91.6522C169.646 91.181 171.124 91.1318 172.308 91.5269L199.939 100.747C200.999 101.101 201.651 101.754 201.651 102.46L201.651 109.819C201.651 110.344 201.29 110.847 200.648 111.218L157.693 136.018C156.359 136.788 154.198 136.791 152.858 136.024L124.894 120.023C124.245 119.651 123.88 119.146 123.88 118.618L123.88 111.824C123.88 111.199 124.392 110.61 125.261 110.237L168.549 91.6522Z" fill="#8B96B1"/>
<path fill-rule="evenodd" clip-rule="evenodd" d="M155.772 136.576C156.475 136.516 157.152 136.33 157.693 136.018L200.648 111.218C201.29 110.847 201.651 110.344 201.651 109.819L201.651 102.46C201.651 101.754 200.999 101.101 199.939 100.747L172.308 91.5269C171.124 91.1318 169.646 91.181 168.549 91.6522L155.772 97.138V136.576Z" fill="#5D6D87"/>
<rect width="37.8301" height="55.2387" rx="2.79753" transform="matrix(0.866025 0.5 -0.866025 0.5 170.357 83.4144)" fill="#BDC3D9"/>
<rect width="10.3388" height="4.13551" rx="0.746137" transform="matrix(0.866025 0.5 -2.20305e-08 1 134.621 131.167)" fill="#2D3752"/>
<rect width="23.4145" height="16.4401" transform="matrix(0.866025 0.5 -2.20305e-08 1 188.441 134.367)" fill="#A56643"/>
<rect width="34.8362" height="17.1509" transform="matrix(-0.866025 0.5 2.20305e-08 1 238.887 127.938)" fill="#8E5B3E"/>
<path d="M218.764 118.43L238.887 126.339L238.887 130.049L208.564 147.54L188.441 135.922L188.441 134.005L218.764 118.43Z" fill="#7B4A29"/>
<path d="M218.557 115.706L240.273 123.372L240.273 128.244L208.564 146.551L186.848 134.013L186.848 129.06L218.557 115.706Z" fill="#A56643"/>
<path d="M208.564 123.372L240.274 123.372L240.274 128.244L208.564 146.551L208.564 123.372Z" fill="#8E5B3E"/>
<rect width="25.0756" height="36.6148" transform="matrix(0.866025 0.5 -0.866025 0.5 218.557 110.76)" fill="#C29472"/>
<rect width="6.85302" height="2.74121" rx="0.494574" transform="matrix(0.866025 0.5 -2.20305e-08 1 194.87 142.413)" fill="#4A2713"/>
</g>
</g>
<defs>
<linearGradient id="paint0_linear_172:492" x1="332.939" y1="216.539" x2="-58.8678" y2="57.7982" gradientUnits="userSpaceOnUse">
<stop stop-color="#BDC3D9" stop-opacity="0.5"/>
<stop offset="1" stop-color="#0F1215" stop-opacity="0"/>
</linearGradient>
<linearGradient id="paint1_linear_172:492" x1="121.825" y1="154.26" x2="64.6541" y2="136.669" gradientUnits="userSpaceOnUse">
<stop stop-color="#191B20"/>
<stop offset="1" stop-color="#191B20" stop-opacity="0"/>
</linearGradient>
<linearGradient id="paint2_linear_172:492" x1="37.168" y1="47.6143" x2="66.4865" y2="167.82" gradientUnits="userSpaceOnUse">
<stop stop-color="#101216"/>
<stop offset="1" stop-color="#101216" stop-opacity="0"/>
</linearGradient>
<clipPath id="clip0_172:492">
<rect width="216" height="216" fill="white"/>
</clipPath>
<clipPath id="clip1_172:492">
<rect width="181.84" height="153.684" fill="white" transform="translate(78 9)"/>
</clipPath>
</defs>
</svg>
